<?xml version="1.0" encoding="UTF-8" standalone="no"?>
<!-- Created with Inkscape (http://www.inkscape.org/) -->

<svg
   xmlns:dc="http://purl.org/dc/elements/1.1/"
   xmlns:cc="http://creativecommons.org/ns#"
   xmlns:rdf="http://www.w3.org/1999/02/22-rdf-syntax-ns#"
   xmlns:svg="http://www.w3.org/2000/svg"
   xmlns="http://www.w3.org/2000/svg"
   xmlns:sodipodi="http://sodipodi.sourceforge.net/DTD/sodipodi-0.dtd"
   xmlns:inkscape="http://www.inkscape.org/namespaces/inkscape"
   width="214"
   height="214"
   id="svg4197"
   version="1.1"
   inkscape:version="0.48.5 r10040"
   sodipodi:docname="New document 9">
  <defs
     id="defs4199" />
  <sodipodi:namedview
     id="base"
     pagecolor="#5f9ea0"
     bordercolor="#666666"
     borderopacity="1.0"
     inkscape:pageopacity="0.0"
     inkscape:pageshadow="2"
     inkscape:zoom="1.979899"
     inkscape:cx="176.02033"
     inkscape:cy="3.7426621"
     inkscape:document-units="px"
     inkscape:current-layer="layer1"
     showgrid="false"
     fit-margin-top="0"
     fit-margin-left="0"
     fit-margin-right="0"
     fit-margin-bottom="0"
     inkscape:window-width="1920"
     inkscape:window-height="1013"
     inkscape:window-x="0"
     inkscape:window-y="1077"
     inkscape:window-maximized="1" />
  <metadata
     id="metadata4202">
    <rdf:RDF>
      <cc:Work
         rdf:about="">
        <dc:format>image/svg+xml</dc:format>
        <dc:type
           rdf:resource="http://purl.org/dc/dcmitype/StillImage" />
        <dc:title></dc:title>
      </cc:Work>
    </rdf:RDF>
  </metadata>
  <g
     inkscape:label="Layer 1"
     inkscape:groupmode="layer"
     id="layer1"
     transform="translate(-561.5625,-442.49553)">
    <g
       transform="translate(239.28572,-0.71428647)"
       id="g4183">
      <path
         transform="translate(200.71428,366.42857)"
         d="m 328.57143,183.79076 c 0,55.22847 -44.77153,100 -100,100 -55.22848,0 -100,-44.77153 -100,-100 0,-55.22848 44.77152,-100.000004 100,-100.000004 55.22847,0 100,44.771524 100,100.000004 z"
         sodipodi:ry="100"
         sodipodi:rx="100"
         sodipodi:cy="183.79076"
         sodipodi:cx="228.57143"
         id="path2985-9"
         style="fill:#5f9ea0;fill-opacity:1;stroke:#ffffff;stroke-width:14;stroke-miterlimit:4;stroke-opacity:1;stroke-dasharray:none"
         sodipodi:type="arc" />
      <g
         id="Bow-and-arrow"
         style="fill:#ffffff;fill-opacity:1;stroke:#5f9ea0;stroke-opacity:1"
         transform="matrix(0.0813736,0.66273477,-0.53544062,0.06574384,594.5406,234.25927)">
        <g
           id="Arrow"
           style="fill:#ffffff;fill-opacity:1;stroke:#5f9ea0;stroke-width:3;stroke-opacity:1"
           transform="matrix(0.333746,0,0,0.390941,348.5713,248.658)">
          <g
             style="fill:#ffffff;fill-opacity:1;stroke:#5f9ea0;stroke-opacity:1"
             id="g2075">
            <path
               style="fill:#ffffff;fill-opacity:1;stroke:#5f9ea0;stroke-opacity:1"
               id="path2077"
               d="m 275.7168,33.870317 c 0,0 -7.38528,22.199773 -14.74794,47.286574 -7.36266,25.086809 -17.39214,53.060639 -17.39214,53.060639 6.29792,-14.6211 14.85443,-16.59841 24.72627,-24.11587 l 13.92193,-0.11679 c 8.97641,10.4486 18.65911,10.07141 25.37377,25.12741 0,0 -9.76204,-26.79096 -17.40613,-52.101455 C 282.54847,57.700338 275.7168,33.870317 275.7168,33.870317 z"
               inkscape:connector-curvature="0" />
            <path
               style="fill:#ffffff;fill-opacity:1;stroke:#5f9ea0;stroke-opacity:1"
               id="path2079"
               d="m 268.64085,111.04954 -1.66221,14.23954 17.15528,-0.15484 -1.88188,-14.05592 -13.61119,-0.0288 z"
               inkscape:connector-curvature="0" />
          </g>
          <path
             style="fill:#ffffff;fill-opacity:1;stroke:#5f9ea0;stroke-opacity:1"
             id="path2081"
             d="m 270.02599,613.06299 -0.0569,-487.42145 11.58872,-0.0309 0.0569,487.42145 -11.58872,0.0309 z"
             inkscape:connector-curvature="0" />
          <g
             style="fill:#ffffff;fill-opacity:1;stroke:#5f9ea0;stroke-opacity:1"
             id="g2083">
            <path
               style="fill:#ffffff;fill-opacity:1;stroke:5;stroke-opacity:1"
               id="path2085"
               d="m 268.40958,594.68656 -25.77115,18.14871 1.9216,-72.40974 23.8424,-19.81413 0.007,74.07516 z"
               inkscape:connector-curvature="0" />
            <path
               style="fill:#ffffff;fill-opacity:1;stroke:#5f9ea0;stroke-opacity:1"
               id="path2087"
               d="m 283.34995,594.31458 25.77115,18.14871 -1.9216,-72.40974 -23.8424,-19.81413 -0.007,74.07516 z"
               inkscape:connector-curvature="0" />
          </g>
        </g>
        <path
           style="fill:#ffffff;fill-opacity:1;stroke:#5f9ea0;stroke-opacity:1"
           id="path9264"
           d="m 451.57032,477.24891 0.0413,3.18234 114.66964,-91.24716 0,-3.21519 -114.71093,91.28001 z m -4.79875,7.03375 -2.05456,-1.58029 -4.10503,3.26653 -125.39323,-100 0,3.21519 125.39323,100 6.15959,-4.90143 z"
           inkscape:connector-curvature="0" />
        <path
           style="fill:#ffffff;fill-opacity:1;stroke:#5f9ea0;stroke-opacity:1"
           id="path8367"
           d="m 440.44945,335.11494 c 4.36409,-0.14764 8.82617,4.29698 13.33665,5.24166 7.18115,1.50402 14.48499,-2.34103 21.71148,1.32596 16.78925,8.51951 33.16092,26.57404 46.60612,40.09392 12.14245,11.35828 20.96194,10.69527 35.75957,7.6493 3.39846,-0.69954 7.11223,0.89375 11.25399,-0.27161 -0.76541,-3.08339 0.76546,-6.16682 0,-9.25021 -18.20536,3.91603 -26.59793,7.20716 -38.76145,-6.35906 -21.62954,-24.12387 -34.02905,-51.11757 -54.72875,-57.55143 -12.30277,-3.82393 -17.58779,3.74222 -21.30381,4.88845 -4.09738,1.26387 -6.28718,2.70896 -13.8738,2.47884 -5.8164,0.18289 -10.37557,-1.2374 -13.1393,-2.47884 -4.11046,-1.84637 -6.57027,-9.68008 -22.03828,-4.87234 -20.69973,6.43386 -33.09923,33.42756 -54.72877,57.55144 -12.16352,13.56622 -20.55609,10.27508 -38.76146,6.35905 -0.76545,3.08341 0.76545,6.16681 0,9.25021 3.51529,0.98909 6.72227,-0.72301 9.68983,-0.0635 15.75306,3.50099 24.75948,4.43865 37.32375,-7.31417 13.91624,-13.99354 30.96759,-31.64385 48.37212,-40.11006 6.82553,-3.32019 13.70538,-0.0722 20.47176,-1.43294 4.33128,-0.87102 8.61607,-5.27657 12.81035,-5.13468 z"
           inkscape:connector-curvature="0" />
      </g>
    </g>
  </g>
</svg>
